<svg width="280" height="70" viewBox="0 0 280 70" fill="none" xmlns="http://www.w3.org/2000/svg">
  <!-- Logo Mark - Nexus (nodo central conectado) -->
  <g id="logomark">
    <!-- Nodo central -->
    <circle cx="35" cy="35" r="8" fill="#C5A059"/>
    
    <!-- Nodos periféricos -->
    <circle cx="15" cy="15" r="4" fill="#D4B575"/>
    <circle cx="55" cy="15" r="4" fill="#D4B575"/>
    <circle cx="15" cy="55" r="4" fill="#D4B575"/>
    <circle cx="55" cy="55" r="4" fill="#D4B575"/>
    
    <!-- Conexiones -->
    <line x1="19" y1="19" x2="31" y2="31" stroke="#C5A059" stroke-width="1.5"/>
    <line x1="51" y1="19" x2="39" y2="31" stroke="#C5A059" stroke-width="1.5"/>
    <line x1="19" y1="51" x2="31" y2="39" stroke="#C5A059" stroke-width="1.5"/>
    <line x1="51" y1="51" x2="39" y2="39" stroke="#C5A059" stroke-width="1.5"/>
    
    <!-- Ancla sutil integrada -->
    <path d="M35 28L35 35M35 35C35 35 32 36 32 39C32 40.5 33 41.5 35 41.5C37 41.5 38 40.5 38 39C38 36 35 35 35 35Z" stroke="#000000" stroke-width="1" fill="none"/>
  </g>
  
  <!-- Texto Principal -->
  <g id="wordmark">
    <text x="75" y="30" font-family="Montserrat, sans-serif" font-size="22" font-weight="700" letter-spacing="1">
      ANCLORA
    </text>
    <text x="75" y="48" font-family="Montserrat, sans-serif" font-size="14" font-weight="400" letter-spacing="3" fill="#C5A059">
      NEXUS GROUP
    </text>
  </g>
  
  <!-- Línea decorativa -->
  <line x1="75" y1="53" x2="220" y2="53" stroke="#C5A059" stroke-width="0.5"/>
  
  <!-- Tagline -->
  <text x="75" y="62" font-family="Playfair Display, serif" font-size="8" font-style="italic" fill="#666666">
    Cimentando el futuro, codificando el valor
  </text>
</svg>
