<svg width="300" height="70" viewBox="0 0 300 70" fill="none" xmlns="http://www.w3.org/2000/svg">
  <!-- Logo Mark - Cerebro/Red Neural + Ancla -->
  <g id="logomark">
    <!-- Red neural estilizada -->
    <circle cx="20" cy="20" r="3" fill="#C5A059"/>
    <circle cx="35" cy="15" r="3" fill="#C5A059"/>
    <circle cx="50" cy="20" r="3" fill="#C5A059"/>
    <circle cx="25" cy="35" r="3" fill="#C5A059"/>
    <circle cx="45" cy="35" r="3" fill="#C5A059"/>
    <circle cx="35" cy="50" r="3" fill="#C5A059"/>
    
    <!-- Conexiones -->
    <line x1="20" y1="20" x2="25" y2="35" stroke="#C5A059" stroke-width="1" opacity="0.6"/>
    <line x1="20" y1="20" x2="35" y2="15" stroke="#C5A059" stroke-width="1" opacity="0.6"/>
    <line x1="35" y1="15" x2="50" y2="20" stroke="#C5A059" stroke-width="1" opacity="0.6"/>
    <line x1="50" y1="20" x2="45" y2="35" stroke="#C5A059" stroke-width="1" opacity="0.6"/>
    <line x1="25" y1="35" x2="35" y2="50" stroke="#C5A059" stroke-width="1" opacity="0.6"/>
    <line x1="45" y1="35" x2="35" y2="50" stroke="#C5A059" stroke-width="1" opacity="0.6"/>
    <line x1="25" y1="35" x2="45" y2="35" stroke="#C5A059" stroke-width="1" opacity="0.6"/>
    
    <!-- Ancla minimalista integrada -->
    <path d="M35 42L35 50M35 50C35 50 32.5 51 32.5 53.5C32.5 55 33.5 56 35 56C36.5 56 37.5 55 37.5 53.5C37.5 51 35 50 35 50Z" stroke="#1A1A1A" stroke-width="1.2" fill="none"/>
  </g>
  
  <!-- Texto Principal -->
  <g id="wordmark">
    <text x="75" y="28" font-family="Montserrat, sans-serif" font-size="20" font-weight="700" letter-spacing="0.5">
      ANCLORA
    </text>
    <text x="75" y="46" font-family="Montserrat, sans-serif" font-size="13" font-weight="400" letter-spacing="2.5" fill="#C5A059">
      COGNITIVE SOLUTIONS
    </text>
  </g>
  
  <!-- Línea decorativa -->
  <line x1="75" y1="51" x2="260" y2="51" stroke="#C5A059" stroke-width="0.5"/>
  
  <!-- Tagline -->
  <text x="75" y="61" font-family="Playfair Display, serif" font-size="9" font-style="italic" fill="#666666">
    Inteligencia que transforma negocios
  </text>
</svg>
